<?xml version="1.0" encoding="UTF-8"?>
<svg id="Layer_2" data-name="Layer 2" xmlns="http://www.w3.org/2000/svg" viewBox="0 0 103.2 31.92">
  <defs>
    <style>
      .cls-1 {
        fill: #24a89b;
      }

      .cls-2 {
        fill: #e41d24;
      }

      .cls-3, .cls-4 {
        fill: #fff;
      }

      .cls-4 {
        font-family: Raleway-Black, Raleway;
        font-size: 20.1px;
        font-weight: 800;
      }

      .cls-5 {
        letter-spacing: 0em;
      }

      .cls-6 {
        fill: #202c38;
      }
    </style>
  </defs>
  <g id="Layer_1-2" data-name="Layer 1">
    <g>
      <path class="cls-1" d="M17.29,27.81h0c-.42.03-.85.06-1.28.06-6.58,0-11.91-5.33-11.91-11.91s5.33-11.91,11.91-11.91c.45,0,.88.03,1.32.08v-.93l2.59-2.8v-.09c-.49-.12-.99-.23-1.5-.3-.07,1.27-1.12,2.28-2.4,2.28s-2.34-1.01-2.4-2.29c-1.2.18-2.36.49-3.45.91.17.33.26.7.26,1.1,0,1.33-1.08,2.4-2.4,2.4-.85,0-1.6-.44-2.03-1.11-.92.73-1.76,1.56-2.51,2.47.65.43,1.07,1.17,1.07,2,0,1.33-1.08,2.4-2.4,2.4-.4,0-.78-.1-1.12-.27-.45,1.1-.77,2.26-.97,3.46,1.31.02,2.36,1.09,2.36,2.4S1.35,18.17.02,18.17c0,0-.01,0-.02,0,.17,1.24.48,2.44.92,3.58.36-.21.78-.33,1.22-.33,1.33,0,2.4,1.08,2.4,2.4,0,.91-.51,1.7-1.25,2.11.78.99,1.66,1.88,2.64,2.66.42-.71,1.19-1.19,2.08-1.19,1.33,0,2.4,1.08,2.4,2.4,0,.43-.11.84-.31,1.19,1.11.44,2.29.75,3.5.93,0-.02,0-.03,0-.05,0-1.33,1.08-2.4,2.4-2.4s2.4,1.08,2.4,2.4c0,.01,0,.03,0,.04.51-.08,1.01-.18,1.5-.3v-.11l-2.62-3.69Z"/>
      <path class="cls-3" d="M15.98,27.06c-6.13,0-11.1-4.97-11.1-11.1S9.85,4.86,15.98,4.86c.46,0,3.49.68,3.93.73v-1c-2.23-.53-2.5-.5-3.91-.58-6.57-.41-11.91,5.38-11.91,11.95s5.33,11.91,11.91,11.91c.43,0,3.48-.2,3.9-.25v-1.4c-.43.05-3.49.83-3.93.83Z"/>
      <path class="cls-3" d="M8.29,22v-3.51l5.51-2.52-5.51-2.54v-3.5l11.63.44v-3.68c-1.29-.8-3.48-.8-3.93-.8-5.57,0-10.08,4.51-10.08,10.08s4.51,10.08,10.08,10.08c.44,0,3.5-.04,3.93-.1v-3.95h-11.63Z"/>
      <polygon class="cls-1" points="17.33 9.81 8.29 9.93 8.29 13.42 13.8 15.96 8.29 18.49 8.29 22 17.29 22 17.29 20.85 19.92 18.85 19.92 18.78 13.83 18.78 18.17 16.82 18.17 15.11 13.83 13.14 19.92 13.14 19.92 13.05 17.33 10.16 17.33 9.81"/>
      <path class="cls-1" d="M19.92.36l-2.59,2.8v.93c.9.1,1.76.29,2.59.58V.36Z"/>
      <path class="cls-6" d="M15.98,26.04c-5.57,0-10.08-4.51-10.08-10.08S10.42,5.88,15.98,5.88c.46,0,.9.04,1.34.1v-1.02c-.44-.05-.89-.09-1.34-.09-6.13,0-11.1,4.97-11.1,11.1s4.97,11.1,11.1,11.1c.44,0,.88-.04,1.31-.09v-1.02c-.43.06-.86.1-1.31.1Z"/>
      <path class="cls-6" d="M19.92,6.68v-1.09c-.82-.31-1.69-.53-2.59-.64v1.02c.91.12,1.77.36,2.59.7Z"/>
      <polygon class="cls-1" points="17.33 10.16 19.92 13.05 19.92 9.78 17.33 9.81 17.33 10.16"/>
      <path class="cls-1" d="M17.54,27.79l-.25.02,2.62,3.69v-4.29c-.18.13-1.39.55-2.38.58Z"/>
      <path class="cls-6" d="M17.29,25.95v1.02c.91-.11,1.79-.33,2.62-.64v-1.09c-.82.35-1.71.59-2.62.71Z"/>
      <polygon class="cls-1" points="17.29 22 19.92 22 19.92 18.85 17.29 20.85 17.29 22"/>
      <g>
        <path class="cls-1" d="M17.29,24.93c.92-.12,1.8-.42,2.62-.77v-2.15h-2.62v2.92Z"/>
        <path class="cls-6" d="M19.92,25.24h0s-.05.02-.08.03c.02-.01.05-.02.08-.03Z"/>
        <path class="cls-6" d="M18.39,25.74c-.36.09-.72.16-1.1.21.37-.04.74-.12,1.1-.21Z"/>
      </g>
    </g>
    <g>
      <path class="cls-1" d="M17.33,9.81l2.59-.03v-2c-.81-.35-1.68-.65-2.59-.77v2.81Z"/>
      <path class="cls-2" d="M19.92,6.68c-.25-.11-.51-.2-.77-.28.26.09.52.18.77.28Z"/>
      <path class="cls-6" d="M17.33,5.98c.63.08,1.24.23,1.82.42-.59-.19-1.2-.34-1.82-.42Z"/>
    </g>
    <text class="cls-4" transform="translate(21.88 23.26)"><tspan x="0" y="0">MIK</tspan><tspan class="cls-5" x="37.4" y="0">R</tspan><tspan x="50.79" y="0">ON</tspan></text>
  </g>
</svg>