<?xml version="1.0" encoding="UTF-8"?>
<svg id="Layer_2" xmlns="http://www.w3.org/2000/svg" version="1.1" viewBox="0 0 103.2 31.9">
  <!-- Generator: Adobe Illustrator 29.5.1, SVG Export Plug-In . SVG Version: 2.1.0 Build 141)  -->
  <defs>
    <style>
      .st0 {
        fill: #24a89b;
      }

      .st1 {
        fill: #e41d24;
      }

      .st2 {
        fill: #fff;
      }

      .st3 {
        fill: #202c38;
      }
    </style>
  </defs>
  <g id="Layer_1-2">
    <g>
      <path class="st0" d="M13,23.4h0c-.2,0-.5,0-.7,0-3.8,0-6.9-3.1-6.9-6.9s3.1-6.9,6.9-6.9.5,0,.8,0v-.5l1.5-1.6h0c-.3-.1-.6-.2-.9-.2,0,.7-.6,1.3-1.4,1.3s-1.4-.6-1.4-1.3c-.7.1-1.4.3-2,.5,0,.2.2.4.2.6,0,.8-.6,1.4-1.4,1.4s-.9-.3-1.2-.6c-.5.4-1,.9-1.5,1.4.4.2.6.7.6,1.2,0,.8-.6,1.4-1.4,1.4s-.5,0-.6-.2c-.3.6-.4,1.3-.6,2,.8,0,1.4.6,1.4,1.4s-.6,1.4-1.4,1.4h0c0,.7.3,1.4.5,2.1.2-.1.5-.2.7-.2.8,0,1.4.6,1.4,1.4s-.3,1-.7,1.2c.5.6,1,1.1,1.5,1.5.2-.4.7-.7,1.2-.7.8,0,1.4.6,1.4,1.4s0,.5-.2.7c.6.3,1.3.4,2,.5h0c0-.8.6-1.4,1.4-1.4s1.4.6,1.4,1.4h0c.3,0,.6,0,.9-.2h0c0,0-1.5-2.2-1.5-2.2h0Z"/>
      <path class="st2" d="M12.2,23c-3.5,0-6.4-2.9-6.4-6.4s2.9-6.4,6.4-6.4,2,.4,2.3.4v-.6c-1.3-.3-1.4-.3-2.3-.3-3.8-.2-6.9,3.1-6.9,6.9s3.1,6.9,6.9,6.9,2-.1,2.3-.1v-.8c-.2,0-2,.5-2.3.5h0Z"/>
      <path class="st2" d="M7.8,20.1v-2l3.2-1.5-3.2-1.5v-2l6.7.3v-2.1c-.7-.5-2-.5-2.3-.5-3.2,0-5.8,2.6-5.8,5.8s2.6,5.8,5.8,5.8,2,0,2.3,0v-2.3s-6.7,0-6.7,0Z"/>
      <polygon class="st0" points="13 13 7.8 13.1 7.8 15.1 11 16.6 7.8 18 7.8 20.1 13 20.1 13 19.4 14.5 18.3 14.5 18.2 11 18.2 13.5 17.1 13.5 16.1 11 14.9 14.5 14.9 14.5 14.9 13 13.2 13 13"/>
      <path class="st0" d="M14.5,7.5l-1.5,1.6v.5c.5,0,1,.2,1.5.3v-2.5Z"/>
      <path class="st3" d="M12.2,22.4c-3.2,0-5.8-2.6-5.8-5.8s2.6-5.8,5.8-5.8.5,0,.8,0v-.6c-.3,0-.5,0-.8,0-3.5,0-6.4,2.9-6.4,6.4s2.9,6.4,6.4,6.4.5,0,.8,0v-.6c-.2,0-.5,0-.8,0h0Z"/>
      <path class="st3" d="M14.5,11.2v-.6c-.5-.2-1-.3-1.5-.4v.6c.5,0,1,.2,1.5.4h0Z"/>
      <polygon class="st0" points="13 13.2 14.5 14.9 14.5 13 13 13 13 13.2"/>
      <path class="st0" d="M13.1,23.4h-.1s1.5,2.1,1.5,2.1v-2.5c-.1,0-.8.3-1.4.3h0Z"/>
      <path class="st3" d="M13,22.4v.6c.5,0,1-.2,1.5-.4v-.6c-.5.2-1,.3-1.5.4Z"/>
      <polygon class="st0" points="13 20.1 14.5 20.1 14.5 18.3 13 19.4 13 20.1"/>
      <g>
        <path class="st0" d="M13,21.8c.5,0,1-.2,1.5-.4v-1.2h-1.5v1.7Z"/>
        <path class="st3" d="M14.5,22h0s0,0,0,0c0,0,0,0,0,0Z"/>
        <path class="st3" d="M13.6,22.2c-.2,0-.4,0-.6.1.2,0,.4,0,.6-.1Z"/>
      </g>
    </g>
    <g>
      <path class="st0" d="M13,13h1.5v-1.2c-.5-.2-1-.4-1.5-.4v1.6h0Z"/>
      <path class="st1" d="M14.5,11.2c-.1,0-.3-.1-.4-.2.2,0,.3.1.4.2Z"/>
      <path class="st3" d="M13,10.8c.4,0,.7.1,1.1.2-.3-.1-.7-.2-1.1-.2Z"/>
    </g>
  </g>
  <g>
    <path class="st2" d="M19.2,25V8.5h4.3l1.9,11.9h0l1.8-11.9h4.3v16.5h-2.8v-12s-1.4,0-1.4,0l2.1-4.2-2.7,16.2h-2.8l-2.7-16.2,2.1,4.2h-1.4v12s-2.8,0-2.8,0Z"/>
    <path class="st2" d="M36.7,25V8.5h3.2v16.5h-3.2Z"/>
    <path class="st2" d="M45,25V8.5h3.2v16.5h-3.2ZM47.9,21.2v-5.8c0,0,.4,0,.4,0l2.7-7h3.3l-3.5,8-1.2.2-1.8,4.6ZM51.2,25l-2.6-8.1,2.2-2.2,3.7,10.3h-3.3Z"/>
    <path class="st2" d="M58.9,25V8.5h5c.8,0,1.5.2,2.1.5.6.3,1,.7,1.3,1.3.3.6.4,1.3.4,2.1v2.7c0,.7-.1,1.4-.4,1.9-.3.5-.7.9-1.2,1.1l1.9,7h-3.4l-1.6-6.3h-.9v6.3h-3.2ZM62.2,16.3h1c.4,0,.7-.1,1-.3.2-.2.3-.5.3-.9v-2.7c0-.4-.1-.7-.3-.9-.2-.2-.6-.3-1-.3h-1v5.2Z"/>
    <path class="st2" d="M77.3,25.2c-.9,0-1.8-.2-2.5-.6s-1.3-.9-1.7-1.7c-.4-.7-.6-1.6-.6-2.6v-7.3c0-1,.2-1.9.6-2.6.4-.7,1-1.3,1.7-1.7s1.5-.6,2.5-.6,1.8.2,2.5.6c.7.4,1.3.9,1.7,1.7s.6,1.6.6,2.6v7.3c0,1-.2,1.8-.6,2.6s-1,1.3-1.7,1.7c-.7.4-1.5.6-2.5.6ZM77.3,22.4c.3,0,.5,0,.8-.2s.4-.3.5-.6.2-.6.2-.9v-7.9c0-.3,0-.6-.2-.9-.1-.3-.3-.5-.5-.6-.2-.1-.5-.2-.8-.2s-.6,0-.8.2c-.2.1-.4.3-.5.6-.1.3-.2.6-.2.9v7.9c0,.4,0,.7.2.9.1.2.3.4.5.6s.5.2.8.2Z"/>
    <path class="st2" d="M87.1,25V8.5h3.4l4,13.3-1.6-2.4h.9v-10.9s2.7,0,2.7,0v16.5h-3.3l-4-13.3,1.6,2.3h-.9v10.9c0,0-2.7,0-2.7,0Z"/>
  </g>
</svg>