<?xml version="1.0" encoding="UTF-8"?>
<svg id="Layer_2" data-name="Layer 2" xmlns="http://www.w3.org/2000/svg" viewBox="0 0 93.24 21.89">
  <defs>
    <style>
      .cls-1 {
        fill: #24a89b;
      }

      .cls-2 {
        fill: #e41d24;
      }

      .cls-3, .cls-4 {
        fill: #fff;
      }

      .cls-4 {
        font-family: Raleway-Black, Raleway;
        font-size: 20.1px;
        font-weight: 800;
      }

      .cls-5 {
        letter-spacing: 0em;
      }

      .cls-6 {
        fill: #202c38;
      }
    </style>
  </defs>
  <g id="Layer_1-2" data-name="Layer 1">
    <g>
      <path class="cls-1" d="M9.18,16.36h0c-.22.02-.45.03-.68.03-3.49,0-6.32-2.83-6.32-6.32s2.83-6.32,6.32-6.32c.24,0,.47.02.7.04v-.49l1.37-1.49v-.05c-.26-.07-.53-.12-.8-.16-.03.67-.59,1.21-1.27,1.21s-1.24-.54-1.27-1.21c-.64.09-1.25.26-1.83.48.09.17.14.37.14.58,0,.7-.57,1.28-1.28,1.28-.45,0-.85-.24-1.08-.59-.49.39-.94.83-1.33,1.31.34.23.57.62.57,1.06,0,.7-.57,1.28-1.28,1.28-.21,0-.41-.05-.59-.15-.24.58-.41,1.2-.51,1.84.69.01,1.25.58,1.25,1.28S.71,11.25,0,11.25c0,0,0,0,0,0,.09.66.26,1.3.49,1.9.19-.11.41-.18.65-.18.7,0,1.28.57,1.28,1.28,0,.48-.27.9-.66,1.12.41.52.88,1,1.4,1.41.22-.38.63-.63,1.1-.63.7,0,1.28.57,1.28,1.28,0,.23-.06.44-.17.63.59.23,1.21.4,1.86.49,0,0,0-.02,0-.03,0-.7.57-1.28,1.28-1.28s1.28.57,1.28,1.28c0,0,0,.01,0,.02.27-.04.54-.1.8-.16v-.06l-1.39-1.96Z"/>
      <path class="cls-3" d="M8.48,15.97c-3.25,0-5.89-2.64-5.89-5.89s2.64-5.89,5.89-5.89c.24,0,1.85.36,2.09.39v-.53c-1.18-.28-1.33-.26-2.07-.31-3.48-.22-6.32,2.85-6.32,6.34s2.83,6.32,6.32,6.32c.23,0,1.85-.11,2.07-.13v-.74c-.23.03-1.85.44-2.09.44Z"/>
      <path class="cls-3" d="M4.4,13.28v-1.86l2.92-1.34-2.92-1.35v-1.86l6.17.23v-1.95c-.69-.43-1.84-.43-2.09-.43-2.96,0-5.35,2.4-5.35,5.35s2.4,5.35,5.35,5.35c.24,0,1.86-.02,2.09-.05v-2.09h-6.17Z"/>
      <polygon class="cls-1" points="9.2 6.81 4.4 6.87 4.4 8.73 7.32 10.08 4.4 11.42 4.4 13.28 9.18 13.28 9.18 12.67 10.57 11.61 10.57 11.57 7.34 11.57 9.64 10.53 9.64 9.62 7.34 8.58 10.57 8.58 10.57 8.53 9.2 7 9.2 6.81"/>
      <path class="cls-1" d="M10.57,1.8l-1.37,1.49v.49c.48.05.94.16,1.37.31V1.8Z"/>
      <path class="cls-6" d="M8.48,15.43c-2.96,0-5.35-2.4-5.35-5.35s2.4-5.35,5.35-5.35c.24,0,.48.02.71.05v-.54c-.23-.03-.47-.05-.71-.05-3.25,0-5.89,2.64-5.89,5.89s2.64,5.89,5.89,5.89c.24,0,.47-.02.69-.05v-.54c-.23.03-.46.05-.69.05Z"/>
      <path class="cls-6" d="M10.57,5.15v-.58c-.44-.17-.9-.28-1.37-.34v.54c.48.06.94.19,1.37.37Z"/>
      <polygon class="cls-1" points="9.2 7 10.57 8.53 10.57 6.79 9.2 6.81 9.2 7"/>
      <path class="cls-1" d="M9.31,16.35h-.13s1.39,1.97,1.39,1.97v-2.28c-.09.07-.74.29-1.26.31Z"/>
      <path class="cls-6" d="M9.18,15.38v.54c.48-.06.95-.17,1.39-.34v-.58c-.44.19-.9.31-1.39.38Z"/>
      <polygon class="cls-1" points="9.18 13.28 10.57 13.28 10.57 11.61 9.18 12.67 9.18 13.28"/>
      <g>
        <path class="cls-1" d="M9.18,14.83c.49-.06.96-.23,1.39-.41v-1.14h-1.39v1.55Z"/>
        <path class="cls-6" d="M10.57,15h0s-.03,0-.04.02c.01,0,.03,0,.04-.02Z"/>
        <path class="cls-6" d="M9.76,15.27c-.19.05-.38.09-.58.11.2-.02.39-.06.58-.11Z"/>
      </g>
    </g>
    <text class="cls-4" transform="translate(11.92 17.18)"><tspan x="0" y="0">MIK</tspan><tspan class="cls-5" x="37.4" y="0">R</tspan><tspan x="50.79" y="0">ON</tspan></text>
    <g>
      <path class="cls-1" d="M9.2,6.81l1.37-.02v-1.06c-.43-.18-.89-.34-1.37-.41v1.49Z"/>
      <path class="cls-2" d="M10.57,5.15c-.13-.06-.27-.11-.41-.15.14.05.28.1.41.15Z"/>
      <path class="cls-6" d="M9.2,4.78c.33.04.66.12.97.22-.31-.1-.64-.18-.97-.22Z"/>
    </g>
  </g>
</svg>